<svg xmlns="http://www.w3.org/2000/svg" xmlns:xlink="http://www.w3.org/1999/xlink" width="764pt" height="260pt" viewBox="0 0 764.14 260"><g id="graph0" class="graph" transform="scale(1 1) rotate(0) translate(4 256)"><title>G</title><polygon fill="#fff" stroke="transparent" points="-4 4 -4 -256 760.145 -256 760.145 4 -4 4"/><g id="node1" class="node"><title>requests</title><ellipse cx="157.847" cy="-234" fill="none" stroke="#000" rx="39.794" ry="18"/><text x="157.847" y="-230.3" fill="#000" font-family="Times,serif" font-size="14" text-anchor="middle">requests</text></g><g id="node2" class="node"><title>certifi</title><ellipse cx="31.847" cy="-162" fill="none" stroke="#000" rx="31.695" ry="18"/><text x="31.847" y="-158.3" fill="#000" font-family="Times,serif" font-size="14" text-anchor="middle">certifi</text></g><g id="edge1" class="edge"><title>requests-&gt;certifi</title><path fill="none" stroke="#000" d="M132.9536,-219.7751C112.9977,-208.3718 84.8709,-192.2992 63.348,-180.0005"/><polygon fill="#000" stroke="#000" points="64.99 -176.908 54.571 -174.985 61.517 -182.986 64.99 -176.908"/></g><g id="node3" class="node"><title>chardet</title><ellipse cx="117.847" cy="-162" fill="none" stroke="#000" rx="36.294" ry="18"/><text x="117.847" y="-158.3" fill="#000" font-family="Times,serif" font-size="14" text-anchor="middle">chardet</text></g><g id="edge2" class="edge"><title>requests-&gt;chardet</title><path fill="none" stroke="#000" d="M147.9595,-216.2022C143.3094,-207.832 137.6695,-197.6802 132.5336,-188.4356"/><polygon fill="#000" stroke="#000" points="135.537 -186.635 127.621 -179.593 129.418 -190.034 135.537 -186.635"/></g><g id="node4" class="node"><title>idna</title><ellipse cx="198.847" cy="-162" fill="none" stroke="#000" rx="27" ry="18"/><text x="198.847" y="-158.3" fill="#000" font-family="Times,serif" font-size="14" text-anchor="middle">idna</text></g><g id="edge3" class="edge"><title>requests-&gt;idna</title><path fill="none" stroke="#000" d="M167.7721,-216.5708C172.6572,-207.9922 178.6454,-197.4762 184.0569,-187.9732"/><polygon fill="#000" stroke="#000" points="187.107 -189.69 189.014 -179.269 181.024 -186.227 187.107 -189.69"/></g><g id="node5" class="node"><title>urllib3</title><ellipse cx="277.847" cy="-162" fill="none" stroke="#000" rx="34.394" ry="18"/><text x="277.847" y="-158.3" fill="#000" font-family="Times,serif" font-size="14" text-anchor="middle">urllib3</text></g><g id="edge4" class="edge"><title>requests-&gt;urllib3</title><path fill="none" stroke="#000" d="M181.8426,-219.6028C200.3481,-208.4994 226.1048,-193.0454 246.2814,-180.9395"/><polygon fill="#000" stroke="#000" points="248.339 -183.787 255.113 -175.641 244.737 -177.784 248.339 -183.787"/></g><g id="node6" class="node"><title>pytest</title><ellipse cx="528.847" cy="-234" fill="none" stroke="#000" rx="31.695" ry="18"/><text x="528.847" y="-230.3" fill="#000" font-family="Times,serif" font-size="14" text-anchor="middle">pytest</text></g><g id="node7" class="node"><title>attrs</title><ellipse cx="356.847" cy="-162" fill="none" stroke="#000" rx="27" ry="18"/><text x="356.847" y="-158.3" fill="#000" font-family="Times,serif" font-size="14" text-anchor="middle">attrs</text></g><g id="edge5" class="edge"><title>pytest-&gt;attrs</title><path fill="none" stroke="#000" d="M502.6767,-223.416C476.1813,-212.6528 434.0635,-195.412 397.8472,-180 394.8429,-178.7215 391.7208,-177.378 388.6004,-176.0253"/><polygon fill="#000" stroke="#000" points="389.929 -172.786 379.364 -171.995 387.13 -179.202 389.929 -172.786"/></g><g id="node8" class="node"><title>importlib-metadata</title><ellipse cx="493.847" cy="-90" fill="none" stroke="#000" rx="79.087" ry="18"/><text x="493.847" y="-86.3" fill="#000" font-family="Times,serif" font-size="14" text-anchor="middle">importlib-metadata</text></g><g id="edge6" class="edge"><title>pytest-&gt;importlib-metadata</title><path fill="none" stroke="#000" d="M499.5132,-226.6458C476.3522,-219.1254 445.569,-204.9209 430.8472,-180 422.7092,-166.2242 424.1615,-158.5362 430.8472,-144 436.4044,-131.9175 446.1466,-121.5267 456.3328,-113.1789"/><polygon fill="#000" stroke="#000" points="458.698 -115.777 464.526 -106.929 454.452 -110.212 458.698 -115.777"/></g><g id="node9" class="node"><title>iniconfig</title><ellipse cx="481.847" cy="-162" fill="none" stroke="#000" rx="42.494" ry="18"/><text x="481.847" y="-158.3" fill="#000" font-family="Times,serif" font-size="14" text-anchor="middle">iniconfig</text></g><g id="edge7" class="edge"><title>pytest-&gt;iniconfig</title><path fill="none" stroke="#000" d="M517.7088,-216.937C512.0558,-208.277 505.0685,-197.5731 498.7677,-187.9207"/><polygon fill="#000" stroke="#000" points="501.629 -185.901 493.232 -179.441 495.767 -189.728 501.629 -185.901"/></g><g id="node10" class="node"><title>pluggy</title><ellipse cx="576.847" cy="-162" fill="none" stroke="#000" rx="35.194" ry="18"/><text x="576.847" y="-158.3" fill="#000" font-family="Times,serif" font-size="14" text-anchor="middle">pluggy</text></g><g id="edge8" class="edge"><title>pytest-&gt;pluggy</title><path fill="none" stroke="#000" d="M540.2225,-216.937C545.9958,-208.277 553.1318,-197.5731 559.5667,-187.9207"/><polygon fill="#000" stroke="#000" points="562.585 -189.703 565.22 -179.441 556.761 -185.82 562.585 -189.703"/></g><g id="node11" class="node"><title>py</title><ellipse cx="656.847" cy="-162" fill="none" stroke="#000" rx="27" ry="18"/><text x="656.847" y="-158.3" fill="#000" font-family="Times,serif" font-size="14" text-anchor="middle">py</text></g><g id="edge9" class="edge"><title>pytest-&gt;py</title><path fill="none" stroke="#000" d="M551.4364,-221.2936C572.5048,-209.4426 604.0657,-191.6896 627.1616,-178.6982"/><polygon fill="#000" stroke="#000" points="629.176 -181.581 636.176 -173.627 625.745 -175.48 629.176 -181.581"/></g><g id="node12" class="node"><title>toml</title><ellipse cx="728.847" cy="-162" fill="none" stroke="#000" rx="27.097" ry="18"/><text x="728.847" y="-158.3" fill="#000" font-family="Times,serif" font-size="14" text-anchor="middle">toml</text></g><g id="edge10" class="edge"><title>pytest-&gt;toml</title><path fill="none" stroke="#000" d="M557.451,-225.9598C590.541,-216.3439 646.4243,-199.1294 692.8472,-180 694.64,-179.2612 696.4672,-178.4711 698.3002,-177.6495"/><polygon fill="#000" stroke="#000" points="699.827 -180.799 707.382 -173.37 696.844 -174.467 699.827 -180.799"/></g><g id="node13" class="node"><title>typing-extensions</title><ellipse cx="434.847" cy="-18" fill="none" stroke="#000" rx="73.387" ry="18"/><text x="434.847" y="-14.3" fill="#000" font-family="Times,serif" font-size="14" text-anchor="middle">typing-extensions</text></g><g id="edge11" class="edge"><title>importlib-metadata-&gt;typing-extensions</title><path fill="none" stroke="#000" d="M479.2629,-72.2022C472.2424,-63.6348 463.6924,-53.2009 455.9756,-43.7839"/><polygon fill="#000" stroke="#000" points="458.514 -41.359 449.468 -35.843 453.099 -45.796 458.514 -41.359"/></g><g id="node14" class="node"><title>zipp</title><ellipse cx="552.847" cy="-18" fill="none" stroke="#000" rx="27" ry="18"/><text x="552.847" y="-14.3" fill="#000" font-family="Times,serif" font-size="14" text-anchor="middle">zipp</text></g><g id="edge12" class="edge"><title>importlib-metadata-&gt;zipp</title><path fill="none" stroke="#000" d="M508.4314,-72.2022C515.8961,-63.0928 525.0899,-51.8733 533.1727,-42.0096"/><polygon fill="#000" stroke="#000" points="536.008 -44.072 539.639 -34.119 530.593 -39.635 536.008 -44.072"/></g><g id="edge13" class="edge"><title>pluggy-&gt;importlib-metadata</title><path fill="none" stroke="#000" d="M558.8374,-146.3771C548.0429,-137.0131 534.0868,-124.9067 521.876,-114.3142"/><polygon fill="#000" stroke="#000" points="524.002 -111.525 514.155 -107.616 519.415 -116.813 524.002 -111.525"/></g></g></svg>