<svg xmlns="http://www.w3.org/2000/svg" xmlns:xlink="http://www.w3.org/1999/xlink" width="784" height="188pt" viewBox="0 0 587.89 188"><g id="graph0" class="graph" transform="scale(1 1) rotate(0) translate(4 184)"><title>G</title><polygon fill="#fff" stroke="transparent" points="-4 4 -4 -184 583.892 -184 583.892 4 -4 4"/><g id="node1" class="node"><title>TopProd</title><ellipse cx="112.796" cy="-162" fill="red" stroke="#000" rx="41.693" ry="18"/><text x="112.796" y="-158.3" fill="#000" font-family="Times,serif" font-size="14" text-anchor="middle">TopProd</text></g><g id="node2" class="node"><title>ProdChild</title><ellipse cx="46.796" cy="-90" fill="none" stroke="#000" rx="46.593" ry="18"/><text x="46.796" y="-86.3" fill="#000" font-family="Times,serif" font-size="14" text-anchor="middle">ProdChild</text></g><g id="edge1" class="edge"><title>TopProd-&gt;ProdChild</title><path fill="none" stroke="#000" d="M97.1548,-144.937C88.9734,-136.0119 78.8021,-124.9159 69.7467,-115.0373"/><polygon fill="#000" stroke="#000" points="72.121 -112.447 62.783 -107.441 66.96 -117.177 72.121 -112.447"/></g><g id="node6" class="node"><title>MutualChild</title><ellipse cx="167.796" cy="-90" fill="none" stroke="#000" rx="55.79" ry="18"/><text x="167.796" y="-86.3" fill="#000" font-family="Times,serif" font-size="14" text-anchor="middle">MutualChild</text></g><g id="edge5" class="edge"><title>TopProd-&gt;MutualChild</title><path fill="none" stroke="#000" d="M126.1098,-144.5708C132.7488,-135.8797 140.9069,-125.2001 148.2404,-115.5998"/><polygon fill="#000" stroke="#000" points="151.125 -117.59 154.414 -107.518 145.562 -113.34 151.125 -117.59"/></g><g id="node3" class="node"><title>MutualGrandChild</title><ellipse cx="166.796" cy="-18" fill="none" stroke="#000" rx="77.986" ry="18"/><text x="166.796" y="-14.3" fill="#000" font-family="Times,serif" font-size="14" text-anchor="middle">MutualGrandChild</text></g><g id="edge2" class="edge"><title>ProdChild-&gt;MutualGrandChild</title><path fill="none" stroke="#000" d="M72.2448,-74.7307C88.9177,-64.7269 110.9902,-51.4834 129.6154,-40.3082"/><polygon fill="#000" stroke="#000" points="131.669 -43.158 138.443 -35.012 128.067 -37.156 131.669 -43.158"/></g><g id="node4" class="node"><title>TopDev</title><ellipse cx="222.796" cy="-162" fill="#00f" stroke="#000" rx="39.794" ry="18"/><text x="222.796" y="-158.3" fill="#000" font-family="Times,serif" font-size="14" text-anchor="middle">TopDev</text></g><g id="node5" class="node"><title>DevChild</title><ellipse cx="286.796" cy="-90" fill="none" stroke="#000" rx="44.693" ry="18"/><text x="286.796" y="-86.3" fill="#000" font-family="Times,serif" font-size="14" text-anchor="middle">DevChild</text></g><g id="edge3" class="edge"><title>TopDev-&gt;DevChild</title><path fill="none" stroke="#000" d="M237.6396,-145.3008C245.6814,-136.2537 255.7757,-124.8977 264.7213,-114.8338"/><polygon fill="#000" stroke="#000" points="267.56 -116.908 271.588 -107.109 262.329 -112.257 267.56 -116.908"/></g><g id="edge6" class="edge"><title>TopDev-&gt;MutualChild</title><path fill="none" stroke="#000" d="M209.7616,-144.937C203.128,-136.2529 194.9244,-125.5137 187.535,-115.8404"/><polygon fill="#000" stroke="#000" points="190.163 -113.514 181.311 -107.692 184.6 -117.764 190.163 -113.514"/></g><g id="edge4" class="edge"><title>DevChild-&gt;MutualGrandChild</title><path fill="none" stroke="#000" d="M261.6399,-74.9064C244.7902,-64.7966 222.3299,-51.3204 203.4959,-40.02"/><polygon fill="#000" stroke="#000" points="205.233 -36.98 194.857 -34.837 201.631 -42.983 205.233 -36.98"/></g><g id="node7" class="node"><title>TopIsolated</title><ellipse cx="407.796" cy="-162" fill="#ff0" stroke="#000" rx="52.791" ry="18"/><text x="407.796" y="-158.3" fill="#000" font-family="Times,serif" font-size="14" text-anchor="middle">TopIsolated</text></g><g id="node8" class="node"><title>IsolatedChild</title><ellipse cx="407.796" cy="-90" fill="none" stroke="#000" rx="57.69" ry="18"/><text x="407.796" y="-86.3" fill="#000" font-family="Times,serif" font-size="14" text-anchor="middle">IsolatedChild</text></g><g id="edge7" class="edge"><title>TopIsolated-&gt;IsolatedChild</title><path fill="none" stroke="#000" d="M407.7958,-143.8314C407.7958,-136.131 407.7958,-126.9743 407.7958,-118.4166"/><polygon fill="#000" stroke="#000" points="411.296 -118.413 407.796 -108.413 404.296 -118.413 411.296 -118.413"/></g><g id="node9" class="node"><title>CycleRed</title><ellipse cx="531.796" cy="-162" fill="red" stroke="#000" rx="45.492" ry="18"/><text x="531.796" y="-158.3" fill="#000" font-family="Times,serif" font-size="14" text-anchor="middle">CycleRed</text></g><g id="node10" class="node"><title>CycleBlue</title><ellipse cx="531.796" cy="-90" fill="#00f" stroke="#000" rx="48.192" ry="18"/><text x="531.796" y="-86.3" fill="#000" font-family="Times,serif" font-size="14" text-anchor="middle">CycleBlue</text></g><g id="edge8" class="edge"><title>CycleRed-&gt;CycleBlue</title><path fill="none" stroke="#000" d="M525.8435,-143.8314C525.0815,-136.0125 524.8655,-126.6923 525.1954,-118.0221"/><polygon fill="#000" stroke="#000" points="528.696 -118.124 525.869 -107.913 521.712 -117.659 528.696 -118.124"/></g><g id="edge9" class="edge"><title>CycleBlue-&gt;CycleRed</title><path fill="none" stroke="#000" d="M537.7231,-107.9134C538.497,-115.6993 538.7249,-125.01 538.4069,-133.6941"/><polygon fill="#000" stroke="#000" points="534.904 -133.625 537.748 -143.831 541.889 -134.079 534.904 -133.625"/></g></g></svg>