<svg xmlns="http://www.w3.org/2000/svg" xmlns:xlink="http://www.w3.org/1999/xlink" width="674pt" height="44pt" viewBox="0 0 674 44"><g id="graph0" class="graph" transform="scale(1 1) rotate(0) translate(4 40)"><polygon fill="#fff" stroke="transparent" points="-4 4 -4 -40 670 -40 670 4 -4 4"/><g id="node1" class="node"><title>00</title><polygon fill="#ff0" stroke="#000" points="319 -36 0 -36 0 0 319 0 319 -36"/><text x="159.5" y="-14.3" font-family="Times,serif" font-size="14" text-anchor="middle">https://github.com/leocavalcante/encrypt.git(=HEAD)</text></g><g id="node2" class="node"><title>01</title><polygon fill="#ff0" stroke="#000" points="423.5 -36 337.5 -36 337.5 0 423.5 0 423.5 -36"/><text x="380.5" y="-14.3" font-family="Times,serif" font-size="14" text-anchor="middle">path(=1.8.0)</text></g><g id="node3" class="node"><title>02</title><polygon fill="#ff0" stroke="#000" points="551 -36 442 -36 442 0 551 0 551 -36"/><text x="496.5" y="-14.3" font-family="Times,serif" font-size="14" text-anchor="middle">provider(=5.0.0)</text></g><g id="node4" class="node"><title>03</title><polygon fill="#ff0" stroke="#000" points="666 -36 569 -36 569 0 666 0 666 -36"/><text x="617.5" y="-14.3" font-family="Times,serif" font-size="14" text-anchor="middle">quiver(=3.0.1)</text></g></g></svg>